<?xml version="1.0" encoding="utf-8"?>
<!-- Generator: Adobe Illustrator 26.4.1, SVG Export Plug-In . SVG Version: 6.00 Build 0)  -->
<svg version="1.1" id="Layer_1" xmlns="http://www.w3.org/2000/svg" xmlns:xlink="http://www.w3.org/1999/xlink" x="0px" y="0px"
	 viewBox="0 0 459.2 287.9" style="enable-background:new 0 0 459.2 287.9;" xml:space="preserve">
<style type="text/css">
	.st0{fill:#A49B3B;}
	.st1{fill:#3F2B3D;}
	.st2{fill:#3F2B3D;stroke:#3F2B3D;stroke-width:0.9567;stroke-miterlimit:10;}
</style>
<g>
	<g>
		<g>
			<path class="st0" d="M221.2,81.2c1.2-17.1,20.9-22.2,33.1-29.8c5.8-3.6,12-7.9,16-13.5c3-4.2,5.8-11.3,5.1-16.5
				c0-0.4-0.6-0.6-0.8-0.2c-1.4,2.8-1.7,6.1-2.6,9c-1.5,4.7-4.1,8.4-7.6,11.8c-6.2,6-13.8,10.3-21.4,14.2
				c-10.1,5.2-23.3,11.8-22.6,25C220.6,81.6,221.2,81.6,221.2,81.2L221.2,81.2z"/>
		</g>
		<g>
			<path class="st0" d="M274,27.8c-0.2-3.5-2.3-5.9-1.7-9.6c0.6-3.7,3.3-11.3,7.2-12.9c5.3-2.2,3.6,9.7,2.8,12.3
				c-1.4,4.7-5.2,6.5-7.5,10.3c-0.2,0.3,0.1,0.8,0.5,0.6c5.3-1.9,8.5-7.9,9.3-13.1c0.4-3,1.7-11.2-2.8-12.2c-4.8-1-8,5.9-9.4,9.1
				c-2.5,5.6-2.4,10.6,1,15.8C273.4,28.3,274,28.2,274,27.8L274,27.8z"/>
		</g>
		<g>
			<path class="st0" d="M257.6,48.4c6.2-6.6,4.5-20.2-1.3-26.4c-0.4-0.4-0.8,0.1-0.7,0.5c3.8,8.6,5.9,16.7,1.7,25.7
				C257.2,48.3,257.4,48.5,257.6,48.4L257.6,48.4z"/>
		</g>
		<g>
			<path class="st0" d="M260.6,35.7c3.8-3.4,2.4-9.1,0.5-13.2c-1.8-4-6.2-11.1-11.2-11.5c-4.1-0.3-3.4,4.4-2.6,7
				c1.9,6.5,7.7,12.7,13.6,15.7c0.4,0.2,0.7-0.2,0.4-0.5c-3.4-4.1-8-6.6-10.8-11.3c-0.8-1.4-1.5-3-1.9-4.6c-0.2-0.6-0.7-2.3-0.5-2.9
				c0.6-1.2,3.2-1.1,4.1-0.7c3.2,1.4,5.9,6.1,7.3,9.1c2,4,3.2,8.7,0.5,12.6C259.9,35.6,260.3,35.9,260.6,35.7L260.6,35.7z"/>
		</g>
		<g>
			<path class="st0" d="M261,46.1c3.9-0.7,7.3-2.7,11.4-2.8c3.8-0.1,7.4,1.4,11.1,1.6c0.3,0,0.5-0.5,0.2-0.6
				c-7.9-3.7-15.2-1.8-22.9,1.1C260.5,45.6,260.6,46.2,261,46.1L261,46.1z"/>
		</g>
		<g>
			<path class="st0" d="M274.9,43.1c6-2.5,15.4-3.3,20.8,0.9c2.3,1.8,3.6,4.9,0.6,7.2c-1.1,0.8-4.1,0.4-5.4,0.2
				c-6.2-0.7-10.3-4.5-15-8.1c-0.2-0.2-0.6,0-0.4,0.3c3.4,5.8,10.2,9.3,16.8,9.5c3.9,0.2,8.6-1.1,7.3-6c-2.3-9.1-19-9.2-25.3-5
				C273.9,42.6,274.4,43.3,274.9,43.1L274.9,43.1z"/>
		</g>
		<g>
			<path class="st0" d="M239,59.3c2.2-3.2,4.6-4.8,4.7-9c0.1-3.6-0.2-7.9-1.6-11.3c-0.1-0.3-0.6-0.3-0.6,0.1c-0.3,3,0.7,6.1,0.9,9.2
				c0.2,2.8,0,4.9-1.8,7.3c-0.8,1.1-1.7,2-2.3,3.3C238.1,59.3,238.7,59.7,239,59.3L239,59.3z"/>
		</g>
		<g>
			<path class="st0" d="M244.1,50.7c3.2-5.6,2.9-11.2,0.6-17.1c-1.8-4.6-5.7-8.7-10.9-9c-3.9-0.2-6.1,2.6-5.4,6.5
				c0.5,2.8,2.4,5.2,4.3,7.2c3.2,3.4,6.4,6.7,9.6,10.2c0.3,0.3,0.9,0,0.7-0.4c-1.5-3.7-4.4-6.3-7.3-9.1c-1.9-1.8-3.8-3.5-4.9-5.9
				c-1.5-3.5-0.1-7.5,4.2-6.6c4.8,1,7.5,5.3,8.9,9.6c1.7,5.2,1.3,9.3-0.5,14.3C243.2,50.9,243.9,51.1,244.1,50.7L244.1,50.7z"/>
		</g>
		<g>
			<path class="st0" d="M241.9,57.9c4.5-0.9,8.9-1.7,13.5-1.6c4.8,0.2,8.6,1.6,13.1,2.8c0.4,0.1,0.6-0.4,0.3-0.6
				c-7.5-4.9-19-4.1-27.1-1.3C241.3,57.4,241.5,58,241.9,57.9L241.9,57.9z"/>
		</g>
		<g>
			<path class="st0" d="M259.5,56.4c5.2-2.3,11.7-1.8,17,0.2c2.6,1,6.6,3,7.1,6.1c0.5,3.2-2.5,3.7-5,3.9c-3.6,0.3-7.9-0.1-11-1.9
				c-4-2.4-6.4-7.2-11.2-8.1c-0.4-0.1-0.6,0.4-0.3,0.6c5.7,4.1,9.3,9.9,16.6,10.9c3.4,0.5,10.4,1.2,12.5-2.5c2.4-4.3-3.6-8.6-6.8-10
				c-5.7-2.5-13.8-3.3-19.2,0.2C258.7,56,259.1,56.6,259.5,56.4L259.5,56.4z"/>
		</g>
		<g>
			<path class="st0" d="M224.5,71.2c4.2-2.5,9.2-5,14.2-4.2c4.4,0.8,7.9,3.6,11.8,5.7c0.3,0.2,0.7-0.2,0.4-0.5
				c-7.6-7.9-18.4-8.1-26.7-1.4C224,71,224.3,71.4,224.5,71.2L224.5,71.2z"/>
		</g>
		<g>
			<path class="st0" d="M239.2,67.6c3.2-1.2,6.5-1.4,9.7-0.4c2.5,0.7,6.3,2.3,7.7,4.7c3.4,5.6-4,6.1-6.6,5.3
				c-1.5-0.5-2.9-1.3-4.2-2.1c-3.5-2.4-4-5.1-5.5-8.7c-0.1-0.3-0.5-0.3-0.6,0c-2.8,8,14.1,17.6,18.9,9.7c2.2-3.7-3.1-7.2-5.8-8.6
				c-4.4-2.2-9.4-2.7-13.8-0.5C238.7,67.2,238.9,67.7,239.2,67.6L239.2,67.6z"/>
		</g>
	</g>
	<g>
		<path class="st1" d="M33.7,145c-4.1-0.2-8.9,2-14.4,6.7c1.3-26.8,1.9-42.5,1.8-47c-0.1-1.6-1-3.6-2.6-6c-1.6-2.3-3.3-3.6-5.1-3.7
			c-3.9-0.3-6.6,0.5-8,2.4c0.7,23.1,1.2,40.4,1.3,52l-1,20.9c-1.9,11.3-3.4,19.3-4.7,23.9c-0.2,4,0.8,6.8,3.1,8.2
			c2.2-0.9,3.6-1.2,4.2-1l1,1c-1.1,1.7-2.2,3.5-3.3,5.2c-1.7,2.8-2.7,5.2-2.8,7c-0.2,2,0.9,4.1,3.3,6.4c2.4,2.3,4.4,3.5,6,3.6
			c12.3,0.5,23.5-5.2,33.8-17.1c4.3-5.1,7.2-9.8,8.6-14.2c1.2-3.7,2-8.3,2.4-13.7c0.4-6.8-1.2-13.8-4.9-20.7
			C48.2,150.2,41.9,145.6,33.7,145z M36.2,199.6c-6.2,7-12.6,10.2-19.2,9.8c-1.9-2.9-3.2-5.6-3.9-8c1.3-2.4,2.9-7.5,4.7-15.4
			c1.8-7.9,3.7-13.7,5.5-17.4c3-6.1,7.2-10.2,12.4-12.2c3.2,0.5,5.8,3.4,7.8,8.5c1.7,4.2,2.6,8.1,2.4,11.6
			C45.6,184.9,42.4,192.6,36.2,199.6z"/>
		<path class="st1" d="M121.6,203.7c0.1,0-2.4,1.3-7.4,3.8c-5.1,2.5-9.7,3.8-13.8,3.8c-3.9,0-7.4-1-10.4-2.9c-3-1.9-4.9-4.4-5.7-7.4
			c3.4,0.2,6.6,0,9.6-0.7c8.8-1.2,15.1-5.5,18.9-13c4.7-8.7,7.1-16.2,7.3-22.5c0.2-4.8-1-9-3.8-12.6c-3-4-7-6-11.9-6
			c-10.6,0-19.7,5.3-27.4,16c-6.8,9.4-10.3,18.8-10.3,28.4c0,6.4,2.2,12.7,6.7,18.9c4.8,5.9,9.5,9.3,14.3,10.4c4.7,1,9,1.4,12.8,1.1
			c3.3-0.4,6.8-1.5,10.7-3.1c3.9-1.6,7-3.8,9.4-6.4c2.9-2.9,4.3-5.1,4.1-6.4C124.3,204.1,123.3,203.7,121.6,203.7z M81.7,184.6
			c0.2-4.3,3.3-9.9,9.1-16.6c5.9-6.7,10.5-9.9,14-9.5c1.2,0.4,1.8,1,1.8,1.8c0,4.6-1,9.6-3.1,15.2c-2.9,7.9-7.2,12.1-12.9,12.4
			c-3.7,0.3-6.7,0.3-9.1-0.2L81.7,184.6z"/>
		<path class="st1" d="M312.8,210c-3-2-4.7-4.8-5.1-8.5c0-1.2,1.8-4.2,5.4-8.9c3.6-4.7,5.4-8,5.4-9.9c0-0.8-0.5-1.9-1.6-3.4
			c-1.1-1.5-1.6-2.5-1.6-2.9c0-0.5,0.5-3,1.6-7.4c1.1-4.4,1.6-6.8,1.6-7.3c0-3.2-1.3-6-3.9-8.6c-2.6-2.6-5.5-3.9-8.6-3.9
			c-5,0-12.1,3.3-21.2,9.9c-9.1,6.6-17.1,14-23.8,22.3c-7.5,9.5-11.3,17.5-11.3,24.1c0,3.6,0.7,6.8,2,9.3c-1.7,0.2-3.2,0.4-4.6,0.4
			c-7.5,0.2-15.6-2.1-18.8-7c-3.1-4.9,0-21.9-5.2-30.8c-3.5-6.2-8.2-6.5-11.2-6.5c-2.1,0-4,1-5.9,2.9c-0.9,1.1-6.3,11.7-7.2,12.7
			c0-1.2,0-2.5,0-3.9c0-5.4-1.1-10.3-3.4-14.7c-2.5-4.9-5.8-7.3-9.9-7.2c-6.2,0.2-12.6,3-19.2,8.3c-4.8,4.1-9.5,8.3-14.3,12.4
			l0.3-2.8c0-0.4,0.4-3.1,1.2-7.9c0.8-4.8,1.2-7.5,1.2-8.1c-0.1-1.5-0.9-3-2.4-4.5c-1.5-1.5-3.3-2.1-5.2-2
			c-3.5,1.4-5.7,4.8-6.5,10.3c-0.9,6.1-1.7,12.2-2.6,18.3c-4.2,17.8-6.3,27.5-6.2,29c0,1,0.7,2.6,2,4.7c1.6,2.6,3.3,3.9,5.1,3.8
			c1.3,0.2,2.2,0.4,2.6,0.5c4.9-7.8,9.8-15.7,14.8-23.5c10.9-15.8,19.6-23.8,26.3-24c1.3-0.1,2,2,2.1,6.4c0,0.4-0.7,5.3-2,14.7
			c-1.4,9.4-2,14.2-2,14.7c0.1,2.1,1.5,4.1,4.1,6c2.6,2,5.5,2.3,7.3,1.9c3.9-0.8,5.5-5.1,6.3-6.3c1.4-2.1,8.7-17.2,13.7-24.3
			c0.7-0.9,1.5-1,1.5-1c4,1.6-1.2,18.6,2.8,26.3c3.4,6.4,14,11.6,21,12.3c5.4,0.6,14.5-1.4,21.3-4.6c3.9,2,9,3,15.3,3
			c4-0.4,8.9-2.4,14.5-6c2.2-1.4,4.6-3.2,7.3-5.4c-0.1,0,2,1.3,6.4,3.8c4.3,2.5,7.9,3.8,10.8,3.8c1.4,0,3.9-1.3,7.5-3.9
			C319.4,214.9,316.9,212.8,312.8,210z M302.7,174.5c-0.1,1.1-0.7,1.8-1.6,2.1c-1.6,0.4-2.8,1-3.6,1.6c-1.6,1.4-3.2,4-4.6,7.7
			c-1.5,4.1-2.3,7.7-2.3,10.6c0,1,0.1,2.1,0.3,3.5c0.2,1.4,0.3,2.3,0.3,2.9c-7.7,7.2-14.4,10.8-20.2,10.8c-1.4,0-2.9-0.4-4.4-1.1
			c-1.9-1-2.8-2.1-2.8-3.4c0-6.9,5.5-16.1,16.5-27.9c10.3-11,17.2-16.5,20.8-16.5c0.4,0,0.7,0.1,0.8,0.2
			C303.2,166.2,303.5,169.4,302.7,174.5z"/>
		<path class="st1" d="M409.5,151.4c0.3-0.5,0.5-0.7,0.6-0.7c-3.3-2.7-7.4-4.6-12.6-5.5c-5.1-1-7.8-1.5-8-1.5
			c-6.5-0.3-11.1-0.4-13.9-0.2c1.4-10.5,2.9-19.4,4.6-26.4c4.6-17.1,6.8-25.7,6.7-25.9c-0.2-1.5-1.3-3.1-3.1-4.7
			c-2.2-2-4.4-2.8-6.5-2.6c-3,0.4-6.3,9.9-9.8,28.4c-1.7,10.7-3.3,21.2-4.6,31.5c-5.9,1.4-9.2,2.2-9.9,2.3c-5.8,1-11.4,2.8-16.8,5.4
			c-9.1,4.4-13.2,9.7-12.2,16c0.8,4.9,7.5,16.6,20.2,35.2c6.5,9.2,13,18.5,19.6,27.9c0.2,0.1,0.4,0.2,0.7,0.2c0.8,0.3,1.4,0.5,2,0.5
			c1.3-0.2,2.1-0.3,2.4-0.3c1.7-35.2,3.6-60.8,5.7-76.8c1.7-0.4,3.6-0.7,5.5-0.8c3.4-0.5,12.8-0.9,28.4-1
			C408.8,152.1,409.2,151.9,409.5,151.4z M358.3,204.2c-2.2-2.7-5.9-8.2-11.3-16.5c-5.7-9.1-8.6-14.8-9-17c-1-6,6.9-10.9,23.5-14.8
			L358.3,204.2z"/>
		<path class="st1" d="M450.7,210c-3-2-4.7-4.8-5.1-8.5c0-1.2,1.8-4.2,5.4-8.9c3.6-4.7,5.4-8,5.4-9.9c0-0.8-0.5-1.9-1.6-3.4
			c-1.1-1.5-1.6-2.5-1.6-2.9c0-0.5,0.5-3,1.6-7.4c1.1-4.4,1.6-6.8,1.6-7.3c0-3.2-1.3-6-3.9-8.6c-2.6-2.6-5.5-3.9-8.6-3.9
			c-5,0-12.1,3.3-21.2,9.9c-9.1,6.6-17.1,14-23.8,22.3c-7.5,9.5-11.3,17.5-11.3,24.1c0,12.6,8,18.9,24.1,18.9c4-0.4,8.9-2.4,14.5-6
			c2.2-1.4,4.6-3.2,7.3-5.4c-0.1,0,2,1.3,6.4,3.8c4.3,2.5,7.9,3.8,10.8,3.8c1.4,0,3.9-1.3,7.5-3.9
			C457.3,214.9,454.8,212.8,450.7,210z M440.5,174.5c-0.1,1.1-0.7,1.8-1.6,2.1c-1.6,0.4-2.8,1-3.6,1.6c-1.6,1.4-3.2,4-4.6,7.7
			c-1.5,4.1-2.3,7.7-2.3,10.6c0,1,0.1,2.1,0.3,3.5c0.2,1.4,0.3,2.3,0.3,2.9c-7.7,7.2-14.4,10.8-20.2,10.8c-1.4,0-2.9-0.4-4.4-1.1
			c-1.9-1-2.8-2.1-2.8-3.4c0-6.9,5.5-16.1,16.5-27.9c10.3-11,17.2-16.5,20.8-16.5c0.4,0,0.7,0.1,0.8,0.2
			C441.1,166.2,441.3,169.4,440.5,174.5z"/>
	</g>
	<g>
		<g>
			<path class="st0" d="M182.7,63c3.2,4.9,6.8,9.5,10.6,13.9c0.7,0.8,1.8-0.4,1.1-1.1c-3.8-4.3-7.3-8.7-10.4-13.5
				C183.6,61.3,182.2,62.1,182.7,63L182.7,63z"/>
		</g>
		<g>
			<path class="st0" d="M195,76.1c2.6-4.3,7.6-6.4,10.6-10.3c0.2-0.2,0.1-0.6,0-0.8c-2.9-4.6-8.4-6.5-11.3-11.1
				c-0.6-0.9-2-0.1-1.4,0.8c1.2,1.8,2.6,3.2,4.3,4.6c1.5,1.2,5,2.9,5.8,4.8c1.1,2.8-3,4.9-4.7,6.3c-1.8,1.5-3.5,2.9-4.7,4.9
				C193,76.2,194.4,77,195,76.1L195,76.1z"/>
		</g>
		<g>
			<path class="st0" d="M182.7,62.2c-2.6,4.7-9.6,5.9-12.5,0.8c-0.5-0.9-1.9-0.1-1.4,0.8c3.5,6.1,12.1,5,15.3-0.8
				C184.7,62.1,183.3,61.3,182.7,62.2L182.7,62.2z"/>
		</g>
		<g>
			<path class="st0" d="M168.9,62.5c-1.6,0.6-3,1.5-4.4,2.5c-3,1.9-5.6,1-8.2-1.3c-2.4-2.1-4.2-5.3-3.8-8.5c0.3-2.1,1-5.2,3.7-5.3
				c1,0,1-1.7,0-1.6c-6.2,0.2-6,9.4-3.7,13.2c1.7,2.9,5,6,8.4,6.3c3.2,0.3,5.6-2.7,8.5-3.7C170.3,63.7,169.9,62.1,168.9,62.5
				L168.9,62.5z"/>
		</g>
		<g>
			<path class="st0" d="M156.4,48.3c-7.5-2.9-12.5-13.8-7.5-20.8c4-5.5,16.3-8.8,19.9-0.6c0.4,1,1.8,0.1,1.4-0.8
				c-4-9.1-18-6-22.7,0.4c-5.8,7.9-0.1,20,8.4,23.3C156.9,50.2,157.4,48.6,156.4,48.3L156.4,48.3z"/>
		</g>
		<g>
			<path class="st0" d="M169.4,25c-0.7-5.4,2-11.6,8.2-11.9c4.6-0.2,9.8,2.7,10,7.6c0.1,1,1.7,1,1.6,0c-0.3-5.9-6.1-9.5-11.6-9.3
				c-7,0.3-10.6,7.1-9.8,13.5C167.9,26,169.5,26,169.4,25L169.4,25z"/>
		</g>
		<g>
			<path class="st0" d="M188.9,22.1c2.3-1.4,4.9-2.9,7.7-2.7c3.2,0.2,6,2.8,6.3,6c0.5,4.2-2.2,10.3-7.1,10.2c-1,0-1,1.6,0,1.6
				c6,0.2,9.4-7.2,8.6-12.4c-0.5-3.1-2.9-5.7-5.8-6.6c-3.7-1.2-7.5,0.6-10.6,2.6C187.2,21.3,188,22.7,188.9,22.1L188.9,22.1z"/>
		</g>
		<g>
			<path class="st0" d="M195.7,37.1c3.5,0.8,5.6,4.5,5.8,7.9c0.3,4.9-3.5,7.4-8,7.6c-1,0-1,1.7,0,1.6c5.2-0.2,9.6-3,9.7-8.7
				c0-4.3-2.6-9-7-10C195.1,35.3,194.6,36.9,195.7,37.1L195.7,37.1z"/>
		</g>
	</g>
	<g>
		<path class="st1" d="M295.5,113.5c-9,0.9-17.2,1.1-25.4,0.6c-10.7-0.7-21.4-0.8-32.1-1.1c-8.2-0.2-16.3-0.4-24.5-0.6
			c-2,0-4.1,0-6.1,0.1c-8.1,0.5-16.2,0.6-24.1,2.6c-6.6,1.7-13.4,2.6-19.4,5.9c-3.5,1.9-7.2,3.4-10.7,5.3
			c-4.9,2.6-10.3,3.8-15.8,3.9c-7.1,0.2-13.5-1.8-19.1-6.2c-5.2-4.1-6.6-9.6-6.5-15.8c0.1-8.3,4.8-13.2,12.1-16.4
			c5.4-2.4,11.2-2.5,16.9-2.9c0.9-0.1,1.4,0.7,2.2,0.7c9.1,0.5,17.4,4.3,26,6.5c7.6,1.9,15.3,2.6,23.1,2.9c8.6,0.3,17.1-0.9,25.6-2
			c13.8-1.9,27.6-3.9,41.4-5.8c10-1.4,19.9-3,29.9-3.9c9.2-0.8,18.3,0.3,27.3,2.1c2.6,0.5,5.2,1.4,7.5,2.8c2.7,1.7,4.9,3.9,4.8,7.5
			c-0.1,3-1.6,5.2-4.1,6.6c-4.6,2.5-9.5,4.3-14.7,5.2C304.7,112.5,299.7,113.3,295.5,113.5z M134.9,91.2c-4,0.1-7.8,1.2-11.5,2.9
			c-10.9,5.2-13.2,19.7-4.4,28c3,2.8,6.5,4.1,10.3,5.3c5.5,1.7,11.1,1.5,16.4-0.2c5.1-1.7,10-3.8,14.7-6.3c7-3.7,14.6-5.3,22.2-7.1
			c4.7-1.1,9.5-1.8,14.3-2.1c1.6-0.1,2.4-0.5,1.7-2.5c-0.7-2.1-0.9-4.4-0.4-6.6c0.4-1.6-0.1-2.1-1.6-1.9c-4.2,0.5-8.5,0-12.7-0.1
			c-5.3-0.1-10.5-1-15.7-2.2c-4.9-1.2-9.8-2.8-14.6-4.4C147.6,92,141.5,90.1,134.9,91.2z"/>
		<path class="st1" d="M138.9,122.3c-5.1,0.4-8.9-0.6-12-3.6c-1-0.9-2.1-2-3.8-1.3c-0.5,0.2-1-0.2-1.2-0.7c-0.2-0.5,0-0.9,0.4-1.2
			c1-0.8,1.6-1.9,2.3-2.9c0.3-0.4,0.6-1,1.2-0.8c0.5,0.2,1,0.6,0.9,1.2c-0.2,3.5,2.7,4.4,4.8,5.8c2,1.3,4.3,1.4,6.6,0.9
			c3.9-0.7,6.8-3.2,9.3-6.1c0.7-0.7,0.6-1.5,0.3-2.4c-0.2-0.7-0.2-1.5,0.7-1.8c0.7-0.2,1.3,0,1.6,0.7c0.6,1.1,1.7,1.6,2.5,2.4
			c0.8,0.8,0.6,1.7-0.4,1.7c-2.6,0-3.7,1.9-5.2,3.4C144.5,120.1,141.6,121.8,138.9,122.3z"/>
	</g>
	<g>
		<path class="st2" d="M69,281.3c0.2-0.3,0.6-0.3,0.9-0.1c1.5,1.2,3.9,2.6,6.5,2.5c1.7,0,3.3-0.5,4.3-1.3c1.1-0.8,1.7-1.8,1.7-2.9
			c0-1.1-0.5-2-1.6-2.7c-1.1-0.7-2.6-1.2-4.6-1.6h-0.1c-1.8-0.3-3.4-0.8-4.6-1.7c-1.2-0.8-2-2-2-3.4c0-1.5,0.8-2.8,2.1-3.7
			c1.2-0.9,2.9-1.4,4.8-1.4c2.6,0,4.5,1.3,6.1,2.3c0.3,0.2,0.4,0.6,0.2,0.9c-0.2,0.3-0.6,0.4-0.8,0.2c-1.5-1-3.2-2.1-5.4-2.1
			c-1.6,0-3,0.5-4,1.2c-1,0.7-1.5,1.7-1.5,2.7c0,1,0.5,1.7,1.5,2.4c1,0.7,2.4,1.2,4.2,1.5h0.1c2,0.4,3.7,0.9,5,1.8
			c1.3,0.8,2.2,2.1,2.2,3.7c0,1.6-0.9,3-2.2,3.9c-1.3,1-3.1,1.5-5.1,1.5c-3,0-5.6-1.5-7.3-2.8C68.8,281.9,68.8,281.5,69,281.3z"/>
		<path class="st2" d="M102.8,265.9c0-0.4,0.3-0.7,0.7-0.7c0.4,0,0.7,0.3,0.7,0.7V277c0,3.6,3,6.6,6.6,6.6c3.7,0,6.6-3,6.6-6.6
			v-11.1c0-0.4,0.3-0.7,0.7-0.7c0.4,0,0.7,0.3,0.7,0.7V277c0,4.4-3.6,8-8,8c-4.4,0-7.9-3.6-7.9-8V265.9z"/>
		<path class="st2" d="M139.7,265.9c0-0.4,0.3-0.7,0.7-0.7h0.1h5.5c3.1,0,5.6,2.5,5.6,5.6c0,3.1-2.5,5.6-5.6,5.6l-4.9,0.1v7.7
			c0,0.4-0.3,0.7-0.7,0.7c-0.4,0-0.7-0.3-0.7-0.7V265.9z M145.9,275.2c2.3,0,4.2-1.9,4.2-4.3c0-2.3-1.9-4.2-4.2-4.2h-4.9v8.5H145.9z
			"/>
		<path class="st2" d="M170.1,265.9c0-0.4,0.3-0.7,0.7-0.7h0.1h10.1c0.4,0,0.7,0.3,0.7,0.7c0,0.4-0.3,0.7-0.7,0.7h-9.4v7.8h8.2
			c0.4,0,0.7,0.3,0.7,0.7c0,0.4-0.3,0.7-0.7,0.7h-8.2v7.8h9.4c0.4,0,0.7,0.3,0.7,0.7c0,0.4-0.3,0.7-0.7,0.7h-10h-0.1h-0.1
			c-0.3,0-0.6-0.3-0.6-0.7V265.9z"/>
		<path class="st2" d="M211.2,280.5c0-1.4-0.7-2.3-1.6-3c-0.9-0.6-1.9-0.9-2.3-1c-0.1,0-0.1-0.1-0.1-0.1h-4.8v7.8
			c0,0.4-0.3,0.7-0.7,0.7c-0.4,0-0.7-0.3-0.7-0.7v-18.3c0-0.3,0.3-0.6,0.6-0.7h0.1h0.1h5.5c3.1,0,5.6,2.5,5.6,5.6
			c0,2.3-1.3,4.2-3.2,5.1c0.1,0.1,0.2,0.1,0.3,0.1c1.3,0.7,2.6,2.2,2.6,4.4c0,1.2,0.1,1.9,0.3,2.3c0.1,0.3,0.3,0.4,0.3,0.5
			c0.3,0,0.6,0.1,0.8,0.5c0.1,0.4-0.1,0.8-0.5,0.9c0,0-0.2,0-0.3,0H213c-0.4,0-1-0.3-1.3-0.9C211.4,283.1,211.2,282.2,211.2,280.5z
			 M207.3,266.6h-4.9v8.5h4.7h0.3c2.3-0.1,4.1-1.9,4.1-4.2C211.5,268.5,209.6,266.6,207.3,266.6z"/>
		<path class="st2" d="M255.6,265.9c0-0.4,0.3-0.6,0.6-0.7h0.1h10.1c0.4,0,0.7,0.3,0.7,0.7c0,0.4-0.3,0.7-0.7,0.7h-9.4v7.8h8.3
			c0.4,0,0.7,0.3,0.7,0.7c0,0.4-0.3,0.7-0.7,0.7h-8.3v8.5c0,0.4-0.3,0.7-0.7,0.7c-0.4,0-0.7-0.3-0.7-0.7V265.9z"/>
		<path class="st2" d="M294.7,265c5.3,0,9.4,4.5,9.4,10c0,5.5-4.2,10-9.4,10c-5.3,0-9.5-4.5-9.5-10C285.2,269.4,289.4,265,294.7,265
			z M294.7,283.6c4.3,0,8-3.8,8-8.6c0-4.9-3.7-8.6-8-8.6c-4.5,0-8.1,3.7-8.1,8.6C286.6,279.8,290.2,283.6,294.7,283.6z"/>
		<path class="st2" d="M332.4,265c5.3,0,9.4,4.5,9.4,10c0,5.5-4.2,10-9.4,10c-5.3,0-9.5-4.5-9.5-10C322.9,269.4,327.1,265,332.4,265
			z M332.4,283.6c4.3,0,8-3.8,8-8.6c0-4.9-3.7-8.6-8-8.6c-4.5,0-8.1,3.7-8.1,8.6C324.3,279.8,327.9,283.6,332.4,283.6z"/>
		<path class="st2" d="M361.6,284.9h-0.1c-0.3,0-0.6-0.3-0.6-0.7v-18.3c0-0.4,0.3-0.7,0.7-0.7h0.1h3.6c5.4,0,9.8,4.4,9.8,9.9
			s-4.4,9.8-9.8,9.8H361.6z M365.2,283.6c4.7,0,8.5-3.8,8.5-8.4c0-4.7-3.8-8.5-8.5-8.5h-3v16.9H365.2z"/>
	</g>
</g>
</svg>
